<svg width="18" height="18" viewBox="0 0 18 18" fill="none" xmlns="http://www.w3.org/2000/svg">
<g clip-path="url(#clip0_1521_3223)">
<path d="M16.875 12.375H1.125V13.5H16.875V12.375Z" fill="white"/>
<path d="M16.875 14.625H1.125V15.75H16.875V14.625Z" fill="white"/>
<path d="M13.5 5.625C13.2775 5.625 13.06 5.69098 12.875 5.8146C12.69 5.93821 12.5458 6.11391 12.4606 6.31948C12.3755 6.52505 12.3532 6.75125 12.3966 6.96948C12.44 7.18771 12.5472 7.38816 12.7045 7.54549C12.8618 7.70283 13.0623 7.80998 13.2805 7.85338C13.4988 7.89679 13.725 7.87451 13.9305 7.78936C14.1361 7.70422 14.3118 7.56002 14.4354 7.37502C14.559 7.19001 14.625 6.9725 14.625 6.75C14.625 6.45163 14.5065 6.16548 14.2955 5.95451C14.0845 5.74353 13.7984 5.625 13.5 5.625Z" fill="white"/>
<path d="M9 9C8.55499 9 8.11998 8.86804 7.74997 8.62081C7.37996 8.37357 7.09157 8.02217 6.92127 7.61104C6.75097 7.19991 6.70642 6.74751 6.79323 6.31105C6.88005 5.87459 7.09434 5.47368 7.40901 5.15901C7.72368 4.84434 8.12459 4.63005 8.56105 4.54323C8.99751 4.45642 9.4499 4.50097 9.86104 4.67127C10.2722 4.84157 10.6236 5.12996 10.8708 5.49997C11.118 5.86998 11.25 6.30499 11.25 6.75C11.2493 7.34653 11.0121 7.91844 10.5903 8.34025C10.1684 8.76206 9.59653 8.99933 9 9ZM9 5.625C8.7775 5.625 8.55999 5.69098 8.37498 5.8146C8.18998 5.93821 8.04579 6.11392 7.96064 6.31948C7.87549 6.52505 7.85321 6.75125 7.89662 6.96948C7.94003 7.18771 8.04717 7.38816 8.20451 7.5455C8.36184 7.70283 8.5623 7.80998 8.78052 7.85338C8.99875 7.89679 9.22495 7.87451 9.43052 7.78937C9.63609 7.70422 9.81179 7.56002 9.9354 7.37502C10.059 7.19001 10.125 6.97251 10.125 6.75C10.1247 6.45172 10.0061 6.16575 9.79517 5.95484C9.58425 5.74392 9.29828 5.6253 9 5.625Z" fill="white"/>
<path d="M4.5 5.625C4.2775 5.625 4.05999 5.69098 3.87498 5.8146C3.68998 5.93821 3.54578 6.11391 3.46064 6.31948C3.37549 6.52505 3.35321 6.75125 3.39662 6.96948C3.44003 7.18771 3.54717 7.38816 3.70451 7.54549C3.86184 7.70283 4.0623 7.80998 4.28052 7.85338C4.49875 7.89679 4.72495 7.87451 4.93052 7.78936C5.13609 7.70422 5.31179 7.56002 5.4354 7.37502C5.55902 7.19001 5.625 6.9725 5.625 6.75C5.625 6.45163 5.50647 6.16548 5.2955 5.95451C5.08452 5.74353 4.79837 5.625 4.5 5.625Z" fill="white"/>
<path d="M15.75 11.25H2.25C1.95186 11.2492 1.66616 11.1305 1.45534 10.9197C1.24453 10.7088 1.12576 10.4231 1.125 10.125V3.375C1.12576 3.07686 1.24453 2.79116 1.45534 2.58034C1.66616 2.36953 1.95186 2.25076 2.25 2.25H15.75C16.0481 2.25076 16.3338 2.36953 16.5447 2.58034C16.7555 2.79116 16.8742 3.07686 16.875 3.375V10.125C16.8746 10.4232 16.7559 10.7092 16.5451 10.9201C16.3342 11.1309 16.0482 11.2496 15.75 11.25ZM15.75 3.375H2.25V10.125H15.75V3.375Z" fill="white"/>
</g>
<defs>
<clipPath id="clip0_1521_3223">
<rect width="18" height="18" fill="white"/>
</clipPath>
</defs>
</svg>
