<svg width="18" height="18" viewBox="0 0 18 18" fill="none" xmlns="http://www.w3.org/2000/svg">
<g clip-path="url(#clip0_1521_3271)">
<path d="M16.5833 4.85099L10.9583 1.75724C10.8753 1.71157 10.782 1.68762 10.6873 1.68762C10.5925 1.68762 10.4992 1.71157 10.4162 1.75724L4.7912 4.85099C4.70301 4.89955 4.62946 4.97089 4.57824 5.05756C4.52702 5.14424 4.5 5.24307 4.5 5.34374C4.5 5.44442 4.52702 5.54325 4.57824 5.62993C4.62946 5.7166 4.70301 5.78794 4.7912 5.8365L10.1248 8.7701V14.7986L8.41691 13.8596L7.87477 14.845L10.4162 16.2427C10.4992 16.2885 10.5925 16.3125 10.6873 16.3125C10.7821 16.3125 10.8753 16.2885 10.9583 16.2427L16.5833 13.149C16.6716 13.1005 16.7452 13.0291 16.7964 12.9425C16.8477 12.8558 16.8747 12.7569 16.8748 12.6562V5.34374C16.8747 5.24304 16.8477 5.1442 16.7964 5.05752C16.7452 4.97085 16.6716 4.89952 16.5833 4.85099ZM10.6873 2.89214L15.145 5.34374L10.6873 7.79535L6.22957 5.34374L10.6873 2.89214ZM15.7498 12.3236L11.2498 14.7986V8.7701L15.7498 6.2951V12.3236Z" fill="white"/>
<path d="M1.125 9H5.625V7.875H1.125V9Z" fill="white"/>
<path d="M2.25 13.5H6.75V12.375H2.25V13.5Z" fill="white"/>
<path d="M3.375 11.25H7.875V10.125H3.375V11.25Z" fill="white"/>
</g>
<defs>
<clipPath id="clip0_1521_3271">
<rect width="18" height="18" fill="white"/>
</clipPath>
</defs>
</svg>
