<svg width="18" height="18" viewBox="0 0 18 18" fill="none" xmlns="http://www.w3.org/2000/svg">
<g clip-path="url(#clip0_1521_3136)">
<path d="M9.5625 10.6875H8.4375V11.8125H9.5625V10.6875Z" fill="white"/>
<path d="M9.5625 12.9375H8.4375V14.0625H9.5625V12.9375Z" fill="white"/>
<path d="M12.9375 6.56437V2.25H14.625V1.125H3.375V2.25H5.0625V6.56437C5.0625 6.80779 5.14145 7.04464 5.2875 7.23938L6.60938 9L5.2875 10.7606C5.14145 10.9554 5.0625 11.1922 5.0625 11.4356V15.75H3.375V16.875H14.625V15.75H12.9375V11.4356C12.9375 11.1922 12.8586 10.9554 12.7125 10.7606L11.3906 9L12.7125 7.23938C12.8586 7.04464 12.9375 6.80779 12.9375 6.56437ZM11.8125 2.25V6.1875H6.1875V2.25H11.8125ZM11.8125 11.4356V15.75H6.1875V11.4356L8.01562 9L6.75 7.3125H11.25L9.98438 9L11.8125 11.4356Z" fill="white"/>
</g>
<defs>
<clipPath id="clip0_1521_3136">
<rect width="18" height="18" fill="white"/>
</clipPath>
</defs>
</svg>
