<svg width="64" height="64" viewBox="0 0 64 64" fill="none" xmlns="http://www.w3.org/2000/svg">
<g clip-path="url(#clip0_1603_6692)">
<path d="M32 8C33.9778 8 35.9112 8.58649 37.5557 9.6853C39.2002 10.7841 40.4819 12.3459 41.2388 14.1732C41.9957 16.0004 42.1937 18.0111 41.8079 19.9509C41.422 21.8907 40.4696 23.6725 39.0711 25.0711C37.6725 26.4696 35.8907 27.422 33.9509 27.8079C32.0111 28.1937 30.0004 27.9957 28.1732 27.2388C26.3459 26.4819 24.7841 25.2002 23.6853 23.5557C22.5865 21.9112 22 19.9778 22 18C22 15.3478 23.0536 12.8043 24.9289 10.9289C26.8043 9.05357 29.3478 8 32 8ZM32 4C29.2311 4 26.5243 4.82109 24.222 6.35943C21.9197 7.89777 20.1253 10.0843 19.0657 12.6424C18.0061 15.2006 17.7288 18.0155 18.269 20.7313C18.8092 23.447 20.1426 25.9416 22.1005 27.8995C24.0584 29.8574 26.553 31.1908 29.2687 31.731C31.9845 32.2712 34.7994 31.9939 37.3576 30.9343C39.9157 29.8747 42.1022 28.0803 43.6406 25.778C45.1789 23.4757 46 20.7689 46 18C46 14.287 44.525 10.726 41.8995 8.1005C39.274 5.475 35.713 4 32 4Z" fill="#999999"/>
<path d="M52 60H48V50C48 48.6868 47.7413 47.3864 47.2388 46.1732C46.7362 44.9599 45.9997 43.8575 45.0711 42.9289C44.1425 42.0003 43.0401 41.2638 41.8268 40.7612C40.6136 40.2587 39.3132 40 38 40H26C23.3478 40 20.8043 41.0536 18.9289 42.9289C17.0536 44.8043 16 47.3478 16 50V60H12V50C12 46.287 13.475 42.726 16.1005 40.1005C18.726 37.475 22.287 36 26 36H38C41.713 36 45.274 37.475 47.8995 40.1005C50.525 42.726 52 46.287 52 50V60Z" fill="#999999"/>
</g>
<defs>
<clipPath id="clip0_1603_6692">
<rect width="64" height="64" fill="white"/>
</clipPath>
</defs>
</svg>
